# Blender v2.82 (sub 7) OBJ File: 'Cristals.blend'
# www.blender.org
mtllib Cristals.mtl
o Cube
v 0.203001 5.714504 -1.082503
v -0.486928 -0.964436 -0.670077
v 1.545609 6.025615 -0.962757
v 0.866851 -1.040825 -0.673057
v 0.026951 5.572194 0.931233
v -0.483465 -0.955960 0.685827
v 1.635558 5.921034 1.029509
v 0.870314 -1.032348 0.682848
v -1.027675 -0.929588 0.009069
v 2.530583 7.314649 0.084735
v 1.411060 -1.067196 0.003701
v -0.435729 6.598922 -0.099910
v -0.330520 4.233741 -1.596974
v 1.975064 3.832923 1.493859
v 1.733096 4.247733 -1.520858
v -0.879582 3.973824 1.483329
v -1.327552 5.274852 -0.097510
v 3.263530 5.398023 0.028391
vt 0.447790 0.141798
vt 0.356250 0.264149
vt 0.219864 0.210352
vt 0.151513 0.035443
vt 0.023907 0.214693
vt 0.176017 0.379397
vt 0.376609 0.413981
vt 0.527036 0.300799
vt 0.820059 0.544756
vt 0.787777 0.673209
vt 0.671107 0.703673
vt 0.665192 0.551159
vt 0.967644 0.660637
vt 0.861351 0.792641
vt 0.565733 0.854640
vt 0.475925 0.662295
vt 0.722500 0.103198
vt 0.644501 0.089795
vt 0.928457 0.109022
vt 0.848665 0.112096
vt 0.313174 0.813400
vt 0.393900 0.828488
vt 0.182743 0.806441
vt 0.101317 0.809248
vn -0.1951 0.6409 0.7424
vn 0.5625 0.2315 0.7937
vn -0.0361 0.2708 0.9620
vn -0.5936 0.4868 0.6408
vn 0.0250 0.3101 -0.9504
vn -0.5734 0.4198 -0.7036
vn 0.5532 0.2689 -0.7885
vn -0.1132 0.6878 -0.7170
vn 0.7665 -0.2196 -0.6035
vn -0.8294 -0.0608 -0.5554
vn 0.0180 -0.1685 -0.9855
vn -0.9291 -0.0805 0.3610
vn -0.0101 -0.1613 0.9868
vn 0.8176 -0.2516 0.5179
usemtl Cristal
s off
f 12/1/1 5/2/1 7/3/1 10/4/1
f 18/5/2 10/4/2 7/3/2 14/6/2
f 14/6/3 7/3/3 5/2/3 16/7/3
f 16/7/4 5/2/4 12/1/4 17/8/4
f 13/9/5 1/10/5 3/11/5 15/12/5
f 17/13/6 12/14/6 1/10/6 13/9/6
f 15/12/7 3/11/7 10/15/7 18/16/7
f 1/10/8 12/14/8 10/15/8 3/11/8
f 4/17/9 15/12/9 18/16/9 11/18/9
f 9/19/10 17/13/10 13/9/10 2/20/10
f 2/20/11 13/9/11 15/12/11 4/17/11
f 6/21/12 16/7/12 17/8/12 9/22/12
f 8/23/13 14/6/13 16/7/13 6/21/13
f 11/24/14 18/5/14 14/6/14 8/23/14
o Cube.001
v -3.397205 5.340479 -0.163845
v -0.614637 -0.780562 -0.374812
v -4.488773 5.297740 0.684906
v -1.485452 -1.140590 0.600186
v -4.507784 4.576972 -1.677136
v -1.484109 -1.225113 -1.315532
v -5.777565 4.518866 -0.626780
v -2.354924 -1.585141 -0.340533
v -0.700425 -0.858569 -1.235868
v -6.311637 5.920687 0.550289
v -2.269135 -1.507133 0.520522
v -3.939902 5.962451 -1.378050
v -2.140611 4.266978 -0.061131
v -5.491358 2.374170 -0.529527
v -3.569909 3.811060 1.357935
v -3.636592 3.120420 -2.572056
v -2.834472 4.937653 -1.903719
v -6.022294 4.022310 1.275748
vt 0.447790 0.141798
vt 0.356250 0.264149
vt 0.219864 0.210352
vt 0.151513 0.035443
vt 0.023907 0.214693
vt 0.176017 0.379397
vt 0.376609 0.413981
vt 0.527036 0.300799
vt 0.820059 0.544756
vt 0.787777 0.673209
vt 0.671107 0.703673
vt 0.665192 0.551159
vt 0.967644 0.660637
vt 0.861351 0.792641
vt 0.565733 0.854640
vt 0.475925 0.662295
vt 0.722500 0.103198
vt 0.644501 0.089795
vt 0.928457 0.109022
vt 0.848665 0.112096
vt 0.313174 0.813400
vt 0.393900 0.828488
vt 0.182743 0.806441
vt 0.101317 0.809248
vn -0.5911 0.3831 -0.7098
vn -0.9702 -0.1727 -0.1699
vn -0.6937 -0.0640 -0.7174
vn -0.2011 0.3611 -0.9106
vn 0.4687 0.5959 0.6521
vn 0.6679 0.7430 0.0440
vn 0.0296 0.3907 0.9201
vn 0.2661 0.8946 0.3590
vn -0.0414 -0.1653 0.9854
vn 0.9301 0.3074 -0.2008
vn 0.6811 0.1696 0.7122
vn 0.4204 0.0055 -0.9073
vn -0.5596 -0.4746 -0.6794
vn -0.7775 -0.5792 0.2451
usemtl Cristal
s off
f 30/25/15 23/26/15 25/27/15 28/28/15
f 36/29/16 28/28/16 25/27/16 32/30/16
f 32/30/17 25/27/17 23/26/17 34/31/17
f 34/31/18 23/26/18 30/25/18 35/32/18
f 31/33/19 19/34/19 21/35/19 33/36/19
f 35/37/20 30/38/20 19/34/20 31/33/20
f 33/36/21 21/35/21 28/39/21 36/40/21
f 19/34/22 30/38/22 28/39/22 21/35/22
f 22/41/23 33/36/23 36/40/23 29/42/23
f 27/43/24 35/37/24 31/33/24 20/44/24
f 20/44/25 31/33/25 33/36/25 22/41/25
f 24/45/26 34/31/26 35/32/26 27/46/26
f 26/47/27 32/30/27 34/31/27 24/45/27
f 29/48/28 36/29/28 32/30/28 26/47/28
o Cube.002
v -1.669207 1.264914 2.313457
v -0.851247 -1.084964 0.145646
v -2.282125 1.120672 2.566560
v -1.401428 -1.407421 0.334776
v -2.082772 1.671120 1.505897
v -1.189945 -0.797417 -0.349376
v -2.803631 1.479545 1.818908
v -1.740126 -1.119874 -0.160247
v -0.800132 -0.811978 -0.177652
v -3.070897 1.627219 2.703056
v -1.791241 -1.392861 0.163051
v -1.733868 1.951719 2.106398
v -1.180593 0.698725 1.996375
v -2.860057 0.695520 1.104048
v -2.051686 0.274638 2.292337
v -1.693827 1.364125 0.705647
v -1.240696 1.632188 1.588733
v -3.176664 0.715190 2.289450
vt 0.447790 0.141798
vt 0.356250 0.264149
vt 0.219864 0.210352
vt 0.151513 0.035443
vt 0.023907 0.214693
vt 0.176017 0.379397
vt 0.376609 0.413981
vt 0.527036 0.300799
vt 0.820059 0.544756
vt 0.787777 0.673209
vt 0.671107 0.703673
vt 0.665192 0.551159
vt 0.967644 0.660637
vt 0.861351 0.792641
vt 0.565733 0.854640
vt 0.475925 0.662295
vt 0.722500 0.103198
vt 0.644501 0.089795
vt 0.928457 0.109022
vt 0.848665 0.112096
vt 0.313174 0.813400
vt 0.393900 0.828488
vt 0.182743 0.806441
vt 0.101317 0.809248
vn -0.3360 0.9097 -0.2440
vn -0.9192 0.2753 -0.2816
vn -0.5088 0.6417 -0.5738
vn 0.0803 0.9200 -0.3836
vn 0.3995 -0.1735 0.9002
vn 0.7563 0.2822 0.5902
vn -0.1183 -0.3691 0.9218
vn 0.3244 0.2853 0.9018
vn -0.2964 -0.7692 0.5661
vn 0.9898 0.0790 0.1183
vn 0.5161 -0.5632 0.6453
vn 0.6139 0.5000 -0.6108
vn -0.4594 0.3000 -0.8360
vn -0.9004 -0.3365 -0.2759
usemtl Cristal
s off
f 48/49/29 41/50/29 43/51/29 46/52/29
f 54/53/30 46/52/30 43/51/30 50/54/30
f 50/54/31 43/51/31 41/50/31 52/55/31
f 52/55/32 41/50/32 48/49/32 53/56/32
f 49/57/33 37/58/33 39/59/33 51/60/33
f 53/61/34 48/62/34 37/58/34 49/57/34
f 51/60/35 39/59/35 46/63/35 54/64/35
f 37/58/36 48/62/36 46/63/36 39/59/36
f 40/65/37 51/60/37 54/64/37 47/66/37
f 45/67/38 53/61/38 49/57/38 38/68/38
f 38/68/39 49/57/39 51/60/39 40/65/39
f 42/69/40 52/55/40 53/56/40 45/70/40
f 44/71/41 50/54/41 52/55/41 42/69/41
f 47/72/42 54/53/42 50/54/42 44/71/42
o Cube.003
v 0.797539 1.232593 3.162581
v 0.072350 -1.535849 0.588507
v 0.107864 1.507712 3.436809
v -0.675582 -1.472000 0.784612
v 0.710509 1.904973 2.221977
v -0.035905 -1.029463 0.010761
v -0.116037 2.207571 2.561729
v -0.783836 -0.965615 0.206867
v 0.317929 -1.308241 0.221052
v -0.304799 2.521248 3.589507
v -1.029415 -1.193223 0.574322
v 1.208063 1.930830 2.939675
v 0.891784 0.366775 2.789503
v -0.671237 1.506450 1.703813
v -0.233877 0.550070 3.098477
v 0.904000 1.356911 1.290601
v 1.481071 1.298045 2.340160
v -1.005110 1.729307 3.077662
vt 0.447790 0.141798
vt 0.356250 0.264149
vt 0.219864 0.210352
vt 0.151513 0.035443
vt 0.023907 0.214693
vt 0.176017 0.379397
vt 0.376609 0.413981
vt 0.527036 0.300799
vt 0.820059 0.544756
vt 0.787777 0.673209
vt 0.671107 0.703673
vt 0.665192 0.551159
vt 0.967644 0.660637
vt 0.861351 0.792641
vt 0.565733 0.854640
vt 0.475925 0.662295
vt 0.722500 0.103198
vt 0.644501 0.089795
vt 0.928457 0.109022
vt 0.848665 0.112096
vt 0.313174 0.813400
vt 0.393900 0.828488
vt 0.182743 0.806441
vt 0.101317 0.809248
vn 0.2613 0.9378 -0.2286
vn -0.5800 0.7590 -0.2958
vn -0.0237 0.8220 -0.5691
vn 0.6110 0.7059 -0.3583
vn 0.1948 -0.3793 0.9045
vn 0.7597 -0.2126 0.6145
vn -0.3409 -0.2388 0.9093
vn 0.3993 0.0381 0.9160
vn -0.7058 -0.4591 0.5395
vn 0.8481 -0.5101 0.1432
vn 0.0727 -0.7627 0.6427
vn 0.8101 0.0560 -0.5836
vn -0.1725 0.5167 -0.8386
vn -0.9190 0.2496 -0.3051
usemtl Cristal
s off
f 66/73/43 59/74/43 61/75/43 64/76/43
f 72/77/44 64/76/44 61/75/44 68/78/44
f 68/78/45 61/75/45 59/74/45 70/79/45
f 70/79/46 59/74/46 66/73/46 71/80/46
f 67/81/47 55/82/47 57/83/47 69/84/47
f 71/85/48 66/86/48 55/82/48 67/81/48
f 69/84/49 57/83/49 64/87/49 72/88/49
f 55/82/50 66/86/50 64/87/50 57/83/50
f 58/89/51 69/84/51 72/88/51 65/90/51
f 63/91/52 71/85/52 67/81/52 56/92/52
f 56/92/53 67/81/53 69/84/53 58/89/53
f 60/93/54 70/79/54 71/80/54 63/94/54
f 62/95/55 68/78/55 70/79/55 60/93/55
f 65/96/56 72/77/56 68/78/56 62/95/56
o Cube.004
v 2.751396 0.103443 1.271833
v 0.806867 -1.222740 0.170025
v 2.608431 0.231125 1.770701
v 0.571203 -1.218012 0.637822
v 2.349916 0.713059 0.988931
v 0.548112 -0.787675 0.035272
v 2.180249 0.846421 1.588278
v 0.312447 -0.782947 0.503069
v 0.771924 -1.007103 -0.084804
v 2.632569 0.861135 2.169497
v 0.347391 -0.998585 0.757898
v 2.924680 0.598426 1.055767
v 2.496848 -0.390398 0.954735
v 1.420192 0.548070 1.405476
v 2.160659 -0.329172 1.675623
v 1.914396 0.528359 0.418287
v 2.673611 0.297766 0.579408
v 1.961223 0.440039 2.198871
vt 0.447790 0.141798
vt 0.356250 0.264149
vt 0.219864 0.210352
vt 0.151513 0.035443
vt 0.023907 0.214693
vt 0.176017 0.379397
vt 0.376609 0.413981
vt 0.527036 0.300799
vt 0.820059 0.544756
vt 0.787777 0.673209
vt 0.671107 0.703673
vt 0.665192 0.551159
vt 0.967644 0.660637
vt 0.861351 0.792641
vt 0.565733 0.854640
vt 0.475925 0.662295
vt 0.722500 0.103198
vt 0.644501 0.089795
vt 0.928457 0.109022
vt 0.848665 0.112096
vt 0.313174 0.813400
vt 0.393900 0.828488
vt 0.182743 0.806441
vt 0.101317 0.809248
vn 0.2005 0.9650 -0.1691
vn -0.4477 0.8101 0.3785
vn -0.2569 0.9458 -0.1987
vn 0.2960 0.7777 -0.5546
vn 0.7001 -0.6110 0.3696
vn 0.9056 -0.3708 -0.2058
vn 0.3722 -0.4777 0.7957
vn 0.9294 -0.2122 0.3021
vn -0.1807 -0.5896 0.7872
vn 0.5688 -0.5286 -0.6302
vn 0.3542 -0.9087 0.2208
vn 0.1383 0.2139 -0.9670
vn -0.6105 0.7252 -0.3184
vn -0.7843 0.3219 0.5303
usemtl Cristal
s off
f 84/97/57 77/98/57 79/99/57 82/100/57
f 90/101/58 82/100/58 79/99/58 86/102/58
f 86/102/59 79/99/59 77/98/59 88/103/59
f 88/103/60 77/98/60 84/97/60 89/104/60
f 85/105/61 73/106/61 75/107/61 87/108/61
f 89/109/62 84/110/62 73/106/62 85/105/62
f 87/108/63 75/107/63 82/111/63 90/112/63
f 73/106/64 84/110/64 82/111/64 75/107/64
f 76/113/65 87/108/65 90/112/65 83/114/65
f 81/115/66 89/109/66 85/105/66 74/116/66
f 74/116/67 85/105/67 87/108/67 76/113/67
f 78/117/68 88/103/68 89/104/68 81/118/68
f 80/119/69 86/102/69 88/103/69 78/117/69
f 83/120/70 90/101/70 86/102/70 80/119/70
o Plane
v -21.543800 -0.651544 21.543800
v 21.543800 -0.651544 21.543800
v -21.543800 -0.651544 -21.543800
v 21.543800 -0.651544 -21.543800
v -21.543800 -3.707015 -21.543800
v -21.543800 -3.707015 21.543800
v 21.543800 -3.707015 21.543800
v 21.543800 -3.707015 -21.543800
vt 0.000000 0.000000
vt 0.000000 1.000000
vt 1.000000 1.000000
vt 1.000000 0.000000
vt 0.000000 0.000000
vt 1.000000 0.000000
vt 1.000000 1.000000
vt 0.000000 1.000000
vn 0.0000 -1.0000 0.0000
vn 0.0000 1.0000 0.0000
vn -1.0000 0.0000 0.0000
vn 1.0000 0.0000 0.0000
vn 0.0000 0.0000 1.0000
vn 0.0000 0.0000 -1.0000
usemtl Material
s off
f 91/121/71 93/122/71 94/123/71 92/124/71
f 96/125/72 97/126/72 98/127/72 95/128/72
f 92/124/73 94/123/73 98/127/73 97/126/73
f 93/122/74 91/121/74 96/125/74 95/128/74
f 94/123/75 93/122/75 95/128/75 98/127/75
f 91/121/76 92/124/76 97/126/76 96/125/76
